<svg width="24" height="25" viewBox="0 0 24 25" fill="none" xmlns="http://www.w3.org/2000/svg">
<path d="M11 4.96939H4C3.46957 4.96939 2.96086 5.1801 2.58579 5.55518C2.21071 5.93025 2 6.43896 2 6.96939V20.9694C2 21.4998 2.21071 22.0085 2.58579 22.3836C2.96086 22.7587 3.46957 22.9694 4 22.9694H18C18.5304 22.9694 19.0391 22.7587 19.4142 22.3836C19.7893 22.0085 20 21.4998 20 20.9694V13.9694" stroke="black" stroke-width="2" stroke-linecap="round" stroke-linejoin="round"/>
<path d="M18.5 3.46939C18.8978 3.07156 19.4374 2.84807 20 2.84807C20.5626 2.84807 21.1022 3.07156 21.5 3.46939C21.8978 3.86721 22.1213 4.40678 22.1213 4.96939C22.1213 5.532 21.8978 6.07156 21.5 6.46939L12 15.9694L8 16.9694L9 12.9694L18.5 3.46939Z" stroke="black" stroke-width="2" stroke-linecap="round" stroke-linejoin="round"/>
</svg>
