<svg width="24" height="25" viewBox="0 0 24 25" fill="none" xmlns="http://www.w3.org/2000/svg">
<path d="M14 2.96939H6C5.46957 2.96939 4.96086 3.1801 4.58579 3.55518C4.21071 3.93025 4 4.43896 4 4.96939V20.9694C4 21.4998 4.21071 22.0085 4.58579 22.3836C4.96086 22.7587 5.46957 22.9694 6 22.9694H18C18.5304 22.9694 19.0391 22.7587 19.4142 22.3836C19.7893 22.0085 20 21.4998 20 20.9694V8.96939L14 2.96939Z" stroke="black" stroke-width="2" stroke-linecap="round" stroke-linejoin="round"/>
<path d="M14 2.96939V8.96939H20" stroke="black" stroke-width="2" stroke-linecap="round" stroke-linejoin="round"/>
<path d="M16 13.9694H8" stroke="black" stroke-width="2" stroke-linecap="round" stroke-linejoin="round"/>
<path d="M16 17.9694H8" stroke="black" stroke-width="2" stroke-linecap="round" stroke-linejoin="round"/>
<path d="M10 9.96939H9H8" stroke="black" stroke-width="2" stroke-linecap="round" stroke-linejoin="round"/>
</svg>
